<svg width="29" height="29" viewBox="0 0 29 29" fill="none" xmlns="http://www.w3.org/2000/svg">
<path d="M28.5687 5.96555C27.5598 6.41264 26.4759 6.71472 25.3365 6.85126C26.5122 6.14776 27.3918 5.04053 27.8111 3.73618C26.7065 4.39229 25.4976 4.85412 24.2369 5.1016C23.3891 4.19639 22.2661 3.59641 21.0424 3.39479C19.8187 3.19318 18.5627 3.40122 17.4693 3.98661C16.3759 4.572 15.5064 5.50199 14.9957 6.6322C14.4851 7.7624 14.3618 9.02958 14.6451 10.237C12.4069 10.1246 10.2173 9.54288 8.2185 8.52952C6.21967 7.51616 4.45626 6.09383 3.0427 4.35485C2.55937 5.1886 2.28145 6.15526 2.28145 7.18476C2.28091 8.11155 2.50914 9.02414 2.94589 9.84156C3.38263 10.659 4.01439 11.356 4.78512 11.8707C3.89128 11.8422 3.01717 11.6007 2.23553 11.1662V11.2387C2.23544 12.5386 2.68507 13.7984 3.50813 14.8045C4.33119 15.8106 5.47697 16.5009 6.75107 16.7584C5.9219 16.9828 5.05257 17.0158 4.20874 16.8551C4.56822 17.9735 5.26844 18.9515 6.21139 19.6523C7.15434 20.353 8.29281 20.7413 9.46741 20.7628C7.47346 22.3281 5.01094 23.1772 2.47599 23.1734C2.02695 23.1736 1.57829 23.1473 1.13232 23.0949C3.70544 24.7493 6.70074 25.6273 9.75982 25.6239C20.1152 25.6239 25.7763 17.0472 25.7763 9.60868C25.7763 9.36701 25.7702 9.12293 25.7594 8.88126C26.8605 8.08494 27.811 7.09884 28.5663 5.96918L28.5687 5.96555V5.96555Z" fill="#E8CF36"/>
</svg>
