<svg width="27" height="26" viewBox="0 0 27 26" fill="none" xmlns="http://www.w3.org/2000/svg">
<g clip-path="url(#clip0_7_42)">
<path d="M26.5984 5.15924C25.6779 5.54591 24.6891 5.80717 23.6495 5.92526C24.7222 5.31682 25.5246 4.35922 25.9072 3.23113C24.8995 3.79858 23.7965 4.198 22.6464 4.41203C21.8729 3.62915 20.8485 3.11025 19.7321 2.93588C18.6157 2.76151 17.4697 2.94144 16.4722 3.44772C15.4748 3.954 14.6815 4.75832 14.2156 5.73579C13.7497 6.71327 13.6373 7.80921 13.8957 8.85347C11.8538 8.75628 9.85622 8.25315 8.03267 7.37673C6.20911 6.5003 4.60033 5.27018 3.31073 3.76619C2.86978 4.48728 2.61623 5.32331 2.61623 6.21369C2.61574 7.01523 2.82395 7.8045 3.2224 8.51146C3.62085 9.21843 4.19721 9.82123 4.90035 10.2664C4.0849 10.2418 3.28744 10.0329 2.57434 9.65711V9.71982C2.57426 10.844 2.98446 11.9336 3.73534 12.8037C4.48623 13.6739 5.53154 14.2709 6.69392 14.4936C5.93745 14.6877 5.14435 14.7163 4.37452 14.5772C4.70247 15.5445 5.3413 16.3904 6.20156 16.9964C7.06182 17.6024 8.10045 17.9382 9.17206 17.9569C7.35295 19.3106 5.10637 20.045 2.79371 20.0417C2.38405 20.0418 1.97473 20.0192 1.56787 19.9738C3.91535 21.4046 6.64799 22.164 9.43883 22.1611C18.8862 22.1611 24.0508 14.7433 24.0508 8.31005C24.0508 8.10104 24.0453 7.88994 24.0354 7.68093C25.04 6.99222 25.9071 6.13938 26.5962 5.16237L26.5984 5.15924V5.15924Z" fill="#E8CF36"/>
</g>
<defs>
<clipPath id="clip0_7_42">
<rect width="26.457" height="25.0811" fill="white" transform="translate(0.534912)"/>
</clipPath>
</defs>
</svg>
