<svg width="29" height="29" viewBox="0 0 29 29" fill="none" xmlns="http://www.w3.org/2000/svg">
<path d="M14.5 8.69148C11.2857 8.69148 8.69152 11.2856 8.69152 14.5C8.69152 17.7143 11.2857 20.3085 14.5 20.3085C17.7144 20.3085 20.3085 17.7143 20.3085 14.5C20.3085 11.2856 17.7144 8.69148 14.5 8.69148ZM14.5 18.2751C12.4213 18.2751 10.7249 16.5787 10.7249 14.5C10.7249 12.4213 12.4213 10.7249 14.5 10.7249C16.5787 10.7249 18.2751 12.4213 18.2751 14.5C18.2751 16.5787 16.5787 18.2751 14.5 18.2751ZM20.5464 7.09988C19.7959 7.09988 19.1899 7.70593 19.1899 8.45642C19.1899 9.20691 19.7959 9.81296 20.5464 9.81296C21.2969 9.81296 21.9029 9.20974 21.9029 8.45642C21.9032 8.27821 21.8682 8.10171 21.8001 7.93703C21.732 7.77235 21.6321 7.62271 21.5061 7.4967C21.3801 7.37069 21.2305 7.27078 21.0658 7.20268C20.9011 7.13459 20.7246 7.09965 20.5464 7.09988V7.09988ZM25.8225 14.5C25.8225 12.9367 25.8366 11.3876 25.7488 9.82712C25.661 8.01462 25.2476 6.40603 23.9222 5.08064C22.594 3.75242 20.9882 3.34177 19.1757 3.25398C17.6124 3.16619 16.0633 3.18035 14.5028 3.18035C12.9396 3.18035 11.3904 3.16619 9.82999 3.25398C8.01749 3.34177 6.4089 3.75525 5.08351 5.08064C3.75529 6.40886 3.34464 8.01462 3.25685 9.82712C3.16906 11.3904 3.18322 12.9395 3.18322 14.5C3.18322 16.0604 3.16906 17.6124 3.25685 19.1728C3.34464 20.9853 3.75812 22.5939 5.08351 23.9193C6.41173 25.2475 8.01749 25.6582 9.82999 25.746C11.3933 25.8338 12.9424 25.8196 14.5028 25.8196C16.0661 25.8196 17.6152 25.8338 19.1757 25.746C20.9882 25.6582 22.5968 25.2447 23.9222 23.9193C25.2504 22.5911 25.661 20.9853 25.7488 19.1728C25.8395 17.6124 25.8225 16.0633 25.8225 14.5V14.5ZM23.3303 21.1779C23.1235 21.6933 22.8743 22.0785 22.475 22.475C22.0757 22.8743 21.6934 23.1235 21.1779 23.3302C19.6883 23.9221 16.1511 23.789 14.5 23.789C12.8489 23.789 9.3089 23.9221 7.81925 23.3331C7.30382 23.1263 6.91866 22.8771 6.52218 22.4778C6.12286 22.0785 5.87365 21.6962 5.66691 21.1807C5.07784 19.6883 5.21095 16.151 5.21095 14.5C5.21095 12.8489 5.07784 9.30886 5.66691 7.81921C5.87365 7.30378 6.12286 6.91863 6.52218 6.52214C6.9215 6.12566 7.30382 5.87361 7.81925 5.66687C9.3089 5.07781 12.8489 5.21091 14.5 5.21091C16.1511 5.21091 19.6911 5.07781 21.1808 5.66687C21.6962 5.87361 22.0814 6.12283 22.4778 6.52214C22.8772 6.92146 23.1264 7.30378 23.3331 7.81921C23.9222 9.30886 23.7891 12.8489 23.7891 14.5C23.7891 16.151 23.9222 19.6883 23.3303 21.1779Z" fill="#E8CF36"/>
</svg>
