<svg width="28" height="26" viewBox="0 0 28 26" fill="none" xmlns="http://www.w3.org/2000/svg">
<path d="M14.1682 7.51687C11.2357 7.51687 8.86907 9.76045 8.86907 12.5404C8.86907 15.3204 11.2357 17.564 14.1682 17.564C17.1007 17.564 19.4674 15.3204 19.4674 12.5404C19.4674 9.76045 17.1007 7.51687 14.1682 7.51687ZM14.1682 15.8054C12.2718 15.8054 10.7242 14.3382 10.7242 12.5404C10.7242 10.7426 12.2718 9.27548 14.1682 9.27548C16.0646 9.27548 17.6123 10.7426 17.6123 12.5404C17.6123 14.3382 16.0646 15.8054 14.1682 15.8054ZM19.6844 6.14035C18.9997 6.14035 18.4468 6.6645 18.4468 7.31358C18.4468 7.96265 18.9997 8.4868 19.6844 8.4868C20.3691 8.4868 20.922 7.9651 20.922 7.31358C20.9222 7.15945 20.8903 7.0068 20.8282 6.86437C20.7661 6.72194 20.6749 6.59253 20.56 6.48355C20.445 6.37456 20.3085 6.28815 20.1582 6.22926C20.008 6.17037 19.847 6.14016 19.6844 6.14035V6.14035ZM24.4978 12.5404C24.4978 11.1884 24.5107 9.84863 24.4306 8.49905C24.3505 6.93148 23.9733 5.54026 22.7642 4.39398C21.5524 3.24525 20.0875 2.8901 18.4339 2.81417C17.0077 2.73824 15.5944 2.75048 14.1708 2.75048C12.7446 2.75048 11.3313 2.73824 9.90771 2.81417C8.25415 2.8901 6.78661 3.2477 5.57744 4.39398C4.36569 5.54271 3.99106 6.93148 3.91096 8.49905C3.83087 9.85107 3.84379 11.1909 3.84379 12.5404C3.84379 13.89 3.83087 15.2322 3.91096 16.5818C3.99106 18.1494 4.36828 19.5406 5.57744 20.6869C6.78919 21.8356 8.25415 22.1908 9.90771 22.2667C11.3339 22.3426 12.7472 22.3304 14.1708 22.3304C15.597 22.3304 17.0103 22.3426 18.4339 22.2667C20.0875 22.1908 21.555 21.8332 22.7642 20.6869C23.9759 19.5382 24.3505 18.1494 24.4306 16.5818C24.5133 15.2322 24.4978 13.8925 24.4978 12.5404V12.5404ZM22.2242 18.3159C22.0356 18.7617 21.8082 19.0948 21.4439 19.4377C21.0796 19.7831 20.7308 19.9986 20.2606 20.1774C18.9015 20.6893 15.6745 20.5742 14.1682 20.5742C12.6619 20.5742 9.43231 20.6893 8.07329 20.1799C7.60306 20.0011 7.25168 19.7855 6.88996 19.4402C6.52566 19.0948 6.29829 18.7642 6.10968 18.3184C5.57228 17.0276 5.69371 13.9684 5.69371 12.5404C5.69371 11.1125 5.57228 8.05082 6.10968 6.76248C6.29829 6.3167 6.52566 5.98359 6.88996 5.64069C7.25426 5.29778 7.60306 5.07979 8.07329 4.90099C9.43231 4.39153 12.6619 4.50665 14.1682 4.50665C15.6745 4.50665 18.9041 4.39153 20.2631 4.90099C20.7334 5.07979 21.0848 5.29533 21.4465 5.64069C21.8108 5.98604 22.0381 6.3167 22.2268 6.76248C22.7642 8.05082 22.6427 11.1125 22.6427 12.5404C22.6427 13.9684 22.7642 17.0276 22.2242 18.3159Z" fill="#E8CF36"/>
</svg>
