<svg width="15" height="15" viewBox="0 0 15 15" fill="none" xmlns="http://www.w3.org/2000/svg">
<path d="M7.64266 1.24807L9.0808 5.67422C9.16782 5.94203 9.41739 6.12336 9.69899 6.12336L14.3529 6.12336C14.4982 6.12336 14.5586 6.3093 14.4411 6.39471L10.676 9.13021C10.4482 9.29573 10.3528 9.58912 10.4398 9.85694L11.878 14.2831C11.9229 14.4213 11.7647 14.5362 11.6472 14.4508L7.88206 11.7153C7.65424 11.5498 7.34576 11.5498 7.11794 11.7153L3.35284 14.4508C3.23528 14.5362 3.07711 14.4213 3.12201 14.2831L4.56015 9.85694C4.64717 9.58912 4.55184 9.29573 4.32403 9.13021L0.558925 6.39471C0.441368 6.3093 0.501783 6.12336 0.647093 6.12336L5.30101 6.12336C5.58261 6.12336 5.83218 5.94203 5.9192 5.67422L7.35734 1.24807C7.40224 1.10988 7.59776 1.10988 7.64266 1.24807Z" stroke="#E8CF36" stroke-width="0.5"/>
</svg>
