<svg width="25" height="24" viewBox="0 0 25 24" fill="none" xmlns="http://www.w3.org/2000/svg">
<path d="M22.7618 15.7047C21.4121 15.5496 20.072 15.3297 18.7467 15.0459C18.4232 14.9452 18.0772 14.924 17.7422 14.9843C17.4073 15.0446 17.0947 15.1844 16.8348 15.3902C16.497 15.7107 15.5219 16.6069 14.5086 17.5329C10.878 15.8707 7.94181 13.134 6.15984 9.75145C7.14767 8.8077 8.07177 7.90551 8.44779 7.59093C8.66873 7.34884 8.81884 7.05774 8.8836 6.7458C8.94836 6.43385 8.92556 6.11162 8.81743 5.81028C8.51229 4.57407 8.27617 3.32396 8.11001 2.06499C8.09221 1.90466 8.03954 1.7494 7.95521 1.60865C7.87088 1.4679 7.75666 1.34463 7.61951 1.24633C7.48236 1.14803 7.32516 1.07677 7.15748 1.0369C6.9898 0.997026 6.81516 0.989372 6.6442 1.0144H1.21431C0.990178 1.03325 0.78037 1.12513 0.621824 1.27388C0.463278 1.42262 0.36616 1.61869 0.347568 1.82757C-0.00295302 6.39196 2.73111 11.2769 3.28557 12.2147V12.2503L3.36205 12.3868C5.34685 15.5928 8.20469 18.2544 11.6471 20.1029V20.1029L11.9275 20.2513C13.2021 20.8805 18.2687 23.2547 23.004 22.9282C23.2305 22.9136 23.4441 22.8243 23.6064 22.6764C23.7687 22.5285 23.8692 22.3316 23.8898 22.121V17.0699C23.9167 16.9107 23.9085 16.748 23.8657 16.5919C23.8229 16.4357 23.7463 16.2893 23.6408 16.1616C23.5353 16.0338 23.4029 15.9275 23.2518 15.8489C23.1006 15.7704 22.9339 15.7213 22.7618 15.7047Z" fill="#E8CF36" stroke="#131313" stroke-width="0.604167" stroke-linecap="round" stroke-linejoin="round"/>
</svg>
