<svg width="27" height="24" viewBox="0 0 27 24" fill="none" xmlns="http://www.w3.org/2000/svg">
<path d="M23.6157 1.54178C24.0571 1.54178 24.4804 1.70421 24.7925 1.99335C25.1046 2.28249 25.2799 2.67465 25.2799 3.08355V15.4178C25.2799 15.8267 25.1046 16.2188 24.7925 16.508C24.4804 16.7971 24.0571 16.9595 23.6157 16.9595H7.66251C6.77983 16.9597 5.93337 17.2847 5.30931 17.863L1.98087 20.9466V3.08355C1.98087 2.67465 2.15621 2.28249 2.46831 1.99335C2.78041 1.70421 3.20371 1.54178 3.64509 1.54178H23.6157ZM3.64509 0C2.76233 0 1.91573 0.324873 1.29153 0.903152C0.667324 1.48143 0.31665 2.26574 0.31665 3.08355L0.31665 22.8075C0.316685 22.96 0.365566 23.1091 0.457106 23.2359C0.548646 23.3627 0.67873 23.4615 0.830893 23.5198C0.983057 23.578 1.15046 23.5932 1.31191 23.5633C1.47337 23.5334 1.62162 23.4597 1.73789 23.3517L6.48591 18.9531C6.79794 18.6639 7.22117 18.5014 7.66251 18.5013H23.6157C24.4985 18.5013 25.3451 18.1764 25.9693 17.5982C26.5935 17.0199 26.9442 16.2356 26.9442 15.4178V3.08355C26.9442 2.26574 26.5935 1.48143 25.9693 0.903152C25.3451 0.324873 24.4985 0 23.6157 0L3.64509 0Z" fill="#E8CF36"/>
</svg>
